<svg width="274" height="50" viewBox="0 0 274 50" fill="none" xmlns="http://www.w3.org/2000/svg">
<mask id="mask0_49_147" style="mask-type:alpha" maskUnits="userSpaceOnUse" x="0" y="0" width="342" height="50">
<g clip-path="url(#clip0_49_147)">
<path d="M0 4H5.92695V0H336.073V4H342V46H336.073V50H5.92695V46H0V4Z" fill="black"/>
</g>
</mask>
<g mask="url(#mask0_49_147)">
<g filter="url(#filter0_ii_49_147)">
<rect width="274" height="50" fill="#FFE84E"/>
<rect x="4" y="4" width="4" height="4" fill="white" fill-opacity="0.2"/>
<path d="M27.6094 28.2422V17.6953H29.3672V28.2422H27.6182V30H18.8203V28.2422H17.0625V17.6953H20.5781V28.2422H22.3359V17.6953H25.8516V28.2422H27.6094ZM43.4297 17.6953V30H39.9141V24.7266H36.3984V30H31.125V17.6953H36.3984V22.9688H39.9141V17.6953H43.4297ZM55.7344 17.6953V19.4531H53.9766V28.2422H55.7344V30H46.9453V28.2422H48.7031V19.4531H46.9453V17.6953H55.7344ZM71.5547 17.6953V19.4531H68.0391V30H62.7656V19.4531H59.25V17.6953H71.5547ZM85.6172 30H73.3125V17.6953H85.6172V19.4531H78.5859V22.9688H83.8594V24.7266H78.5859V28.2422H85.6172V30ZM99.6797 30H87.375V17.6953H92.6484V28.2422H99.6797V30ZM111.984 17.6953V19.4531H110.227V28.2422H111.984V30H103.195V28.2422H104.953V19.4531H103.195V17.6953H111.984ZM115.5 26.4844H119.016V28.2422H124.289V24.7266H117.258V22.9688H115.5V19.4531H117.258V17.6953H126.047V19.4531H127.805V21.2109H124.289V19.4531H120.773V22.9688H126.047V24.7266H127.805V28.2422H126.047V30H117.258V28.2422H115.5V26.4844ZM141.867 17.6953V19.4531H138.352V30H133.078V19.4531H129.562V17.6953H141.867ZM166.477 19.4531V30H162.961V19.4531H161.203V30H157.688V17.6953H168.243V19.4531H169.992V30H168.234V19.4531H166.477ZM182.297 17.6953V19.4531H180.539V28.2422H182.297V30H173.508V28.2422H175.266V19.4531H173.508V17.6953H182.297ZM185.812 30V17.6953H196.359V19.4531H198.117V30H194.602V19.4531H191.086L191.095 30H185.812ZM212.18 17.6953V19.4531H208.664V30H203.391V19.4531H199.875V17.6953H212.18Z" fill="#28248C"/>
<rect x="265.81" y="42" width="4" height="4" fill="black" fill-opacity="0.2"/>
</g>
<path d="M245.599 11.5862C245.94 11.2109 246.403 11 246.886 11C247.369 11 247.833 11.2109 248.174 11.5862L256.371 20.5965C256.712 20.972 256.904 21.4812 256.904 22.0121C256.904 22.543 256.712 23.0522 256.371 23.4277L248.174 32.4379C247.831 32.8027 247.371 33.0045 246.893 32.9999C246.415 32.9954 245.959 32.7848 245.621 32.4135C245.283 32.0423 245.092 31.5401 245.087 31.0151C245.083 30.4901 245.267 29.9844 245.599 29.6067L250.529 24.0144H233.226C232.742 24.0144 232.279 23.8034 231.938 23.4279C231.596 23.0524 231.404 22.5431 231.404 22.0121C231.404 21.4811 231.596 20.9718 231.938 20.5963C232.279 20.2208 232.742 20.0098 233.226 20.0098H250.529L245.599 14.4175C245.257 14.042 245.065 13.5328 245.065 13.0018C245.065 12.4709 245.257 11.9617 245.599 11.5862Z" fill="#28248C"/>
</g>
<defs>
<filter id="filter0_ii_49_147" x="0" y="0" width="274" height="50" filterUnits="userSpaceOnUse" color-interpolation-filters="sRGB">
<feFlood flood-opacity="0" result="BackgroundImageFix"/>
<feBlend mode="normal" in="SourceGraphic" in2="BackgroundImageFix" result="shape"/>
<feColorMatrix in="SourceAlpha" type="matrix" values="0 0 0 0 0 0 0 0 0 0 0 0 0 0 0 0 0 0 127 0" result="hardAlpha"/>
<feOffset dx="4" dy="4"/>
<feComposite in2="hardAlpha" operator="arithmetic" k2="-1" k3="1"/>
<feColorMatrix type="matrix" values="0 0 0 0 1 0 0 0 0 1 0 0 0 0 1 0 0 0 0.2 0"/>
<feBlend mode="normal" in2="shape" result="effect1_innerShadow_49_147"/>
<feColorMatrix in="SourceAlpha" type="matrix" values="0 0 0 0 0 0 0 0 0 0 0 0 0 0 0 0 0 0 127 0" result="hardAlpha"/>
<feOffset dx="-4" dy="-4"/>
<feComposite in2="hardAlpha" operator="arithmetic" k2="-1" k3="1"/>
<feColorMatrix type="matrix" values="0 0 0 0 0 0 0 0 0 0 0 0 0 0 0 0 0 0 0.2 0"/>
<feBlend mode="normal" in2="effect1_innerShadow_49_147" result="effect2_innerShadow_49_147"/>
</filter>
<clipPath id="clip0_49_147">
<rect width="342" height="50" fill="white"/>
</clipPath>
</defs>
</svg>
