<svg width="231" height="50" viewBox="0 0 231 50" fill="none" xmlns="http://www.w3.org/2000/svg">
<mask id="mask0_69_666" style="mask-type:alpha" maskUnits="userSpaceOnUse" x="0" y="0" width="231" height="50">
<g clip-path="url(#clip0_69_666)">
<path d="M0 4H4V0H226.81V4H230.81V46H226.81V50H4V46H0V4Z" fill="black"/>
</g>
</mask>
<g mask="url(#mask0_69_666)">
<g filter="url(#filter0_ii_69_666)">
<rect width="230.81" height="50" fill="#37DBFF"/>
<path d="M4 4H8V8H4V4Z" fill="white" fill-opacity="0.2"/>
<path d="M222.81 42H226.81V46H222.81V42Z" fill="black" fill-opacity="0.2"/>
</g>
<g filter="url(#filter1_d_69_666)">
<path d="M84.375 30V17.6953H94.9219V19.4531H96.6797V22.9688H94.9219V24.7266H96.6797V28.2422H94.9219V30H84.375ZM89.6572 24.7266V28.2422H93.1641V24.7266H89.6572ZM89.6484 19.4531V22.9688H93.1641V19.4531H89.6484ZM103.711 17.6953V28.2422H107.227V17.6953H110.742V28.2422H108.984V30H100.195V28.2422H98.4375V17.6953H103.711ZM112.5 30V17.6953H123.047V19.4531H124.805V22.9688H123.047V24.7266H124.805V30H119.531V24.7266H116.024V30H112.5ZM117.773 19.4531V22.9688H121.289V19.4531H117.773ZM126.562 30V17.6953H137.109V19.4531H138.867V30H135.352V19.4531H131.836L131.845 30H126.562Z" fill="white"/>
</g>
</g>
<defs>
<filter id="filter0_ii_69_666" x="0" y="0" width="230.81" height="50" filterUnits="userSpaceOnUse" color-interpolation-filters="sRGB">
<feFlood flood-opacity="0" result="BackgroundImageFix"/>
<feBlend mode="normal" in="SourceGraphic" in2="BackgroundImageFix" result="shape"/>
<feColorMatrix in="SourceAlpha" type="matrix" values="0 0 0 0 0 0 0 0 0 0 0 0 0 0 0 0 0 0 127 0" result="hardAlpha"/>
<feOffset dx="4" dy="4"/>
<feComposite in2="hardAlpha" operator="arithmetic" k2="-1" k3="1"/>
<feColorMatrix type="matrix" values="0 0 0 0 1 0 0 0 0 1 0 0 0 0 1 0 0 0 0.2 0"/>
<feBlend mode="normal" in2="shape" result="effect1_innerShadow_69_666"/>
<feColorMatrix in="SourceAlpha" type="matrix" values="0 0 0 0 0 0 0 0 0 0 0 0 0 0 0 0 0 0 127 0" result="hardAlpha"/>
<feOffset dx="-4" dy="-4"/>
<feComposite in2="hardAlpha" operator="arithmetic" k2="-1" k3="1"/>
<feColorMatrix type="matrix" values="0 0 0 0 0 0 0 0 0 0 0 0 0 0 0 0 0 0 0.2 0"/>
<feBlend mode="normal" in2="effect1_innerShadow_69_666" result="effect2_innerShadow_69_666"/>
</filter>
<filter id="filter1_d_69_666" x="84.375" y="17.6953" width="54.4922" height="14.3047" filterUnits="userSpaceOnUse" color-interpolation-filters="sRGB">
<feFlood flood-opacity="0" result="BackgroundImageFix"/>
<feColorMatrix in="SourceAlpha" type="matrix" values="0 0 0 0 0 0 0 0 0 0 0 0 0 0 0 0 0 0 127 0" result="hardAlpha"/>
<feOffset dy="2"/>
<feComposite in2="hardAlpha" operator="out"/>
<feColorMatrix type="matrix" values="0 0 0 0 0 0 0 0 0 0 0 0 0 0 0 0 0 0 0.25 0"/>
<feBlend mode="normal" in2="BackgroundImageFix" result="effect1_dropShadow_69_666"/>
<feBlend mode="normal" in="SourceGraphic" in2="effect1_dropShadow_69_666" result="shape"/>
</filter>
<clipPath id="clip0_69_666">
<rect width="230.81" height="50" fill="white"/>
</clipPath>
</defs>
</svg>
