<svg width="231" height="50" viewBox="0 0 231 50" fill="none" xmlns="http://www.w3.org/2000/svg">
<mask id="mask0_69_390" style="mask-type:alpha" maskUnits="userSpaceOnUse" x="0" y="0" width="231" height="50">
<g clip-path="url(#clip0_69_390)">
<path d="M0 4H4V0H226.81V4H230.81V46H226.81V50H4V46H0V4Z" fill="black"/>
</g>
</mask>
<g mask="url(#mask0_69_390)">
<g filter="url(#filter0_ii_69_390)">
<rect width="230.81" height="50" fill="#37DBFF"/>
<path d="M4 4H8V8H4V4Z" fill="white" fill-opacity="0.2"/>
<path d="M222.81 42H226.81V46H222.81V42Z" fill="black" fill-opacity="0.2"/>
</g>
<g filter="url(#filter1_d_69_390)">
<path d="M93.1641 19.4531V30H89.6484V19.4531H87.8906V30H84.375V17.6953H94.9307V19.4531H96.6797V30H94.9219V19.4531H93.1641ZM108.984 17.6953V19.4531H107.227V28.2422H108.984V30H100.195V28.2422H101.953V19.4531H100.195V17.6953H108.984ZM112.5 30V17.6953H123.047V19.4531H124.805V30H121.289V19.4531H117.773L117.782 30H112.5ZM138.867 17.6953V19.4531H135.352V30H130.078V19.4531H126.562V17.6953H138.867Z" fill="white"/>
</g>
</g>
<defs>
<filter id="filter0_ii_69_390" x="0" y="0" width="230.81" height="50" filterUnits="userSpaceOnUse" color-interpolation-filters="sRGB">
<feFlood flood-opacity="0" result="BackgroundImageFix"/>
<feBlend mode="normal" in="SourceGraphic" in2="BackgroundImageFix" result="shape"/>
<feColorMatrix in="SourceAlpha" type="matrix" values="0 0 0 0 0 0 0 0 0 0 0 0 0 0 0 0 0 0 127 0" result="hardAlpha"/>
<feOffset dx="4" dy="4"/>
<feComposite in2="hardAlpha" operator="arithmetic" k2="-1" k3="1"/>
<feColorMatrix type="matrix" values="0 0 0 0 1 0 0 0 0 1 0 0 0 0 1 0 0 0 0.2 0"/>
<feBlend mode="normal" in2="shape" result="effect1_innerShadow_69_390"/>
<feColorMatrix in="SourceAlpha" type="matrix" values="0 0 0 0 0 0 0 0 0 0 0 0 0 0 0 0 0 0 127 0" result="hardAlpha"/>
<feOffset dx="-4" dy="-4"/>
<feComposite in2="hardAlpha" operator="arithmetic" k2="-1" k3="1"/>
<feColorMatrix type="matrix" values="0 0 0 0 0 0 0 0 0 0 0 0 0 0 0 0 0 0 0.2 0"/>
<feBlend mode="normal" in2="effect1_innerShadow_69_390" result="effect2_innerShadow_69_390"/>
</filter>
<filter id="filter1_d_69_390" x="84.375" y="17.6953" width="54.4922" height="14.3047" filterUnits="userSpaceOnUse" color-interpolation-filters="sRGB">
<feFlood flood-opacity="0" result="BackgroundImageFix"/>
<feColorMatrix in="SourceAlpha" type="matrix" values="0 0 0 0 0 0 0 0 0 0 0 0 0 0 0 0 0 0 127 0" result="hardAlpha"/>
<feOffset dy="2"/>
<feComposite in2="hardAlpha" operator="out"/>
<feColorMatrix type="matrix" values="0 0 0 0 0 0 0 0 0 0 0 0 0 0 0 0 0 0 0.25 0"/>
<feBlend mode="normal" in2="BackgroundImageFix" result="effect1_dropShadow_69_390"/>
<feBlend mode="normal" in="SourceGraphic" in2="effect1_dropShadow_69_390" result="shape"/>
</filter>
<clipPath id="clip0_69_390">
<rect width="230.81" height="50" fill="white"/>
</clipPath>
</defs>
</svg>
