<svg width="34" height="34" viewBox="0 0 34 34" fill="none" xmlns="http://www.w3.org/2000/svg">
<path d="M17 0C12.4923 0 8.16531 1.79217 4.98047 4.97914C1.79234 8.16737 0.000883123 12.4912 0 17C0 21.5069 1.79297 25.8339 4.98047 29.0209C8.16531 32.2078 12.4923 34 17 34C21.5077 34 25.8347 32.2078 29.0195 29.0209C32.207 25.8339 34 21.5069 34 17C34 12.4931 32.207 8.16611 29.0195 4.97914C25.8347 1.79217 21.5077 0 17 0Z" fill="url(#paint0_linear_0_9)"/>
<path d="M7.69507 16.8204C12.6516 14.6614 15.956 13.2379 17.6082 12.5502C22.331 10.5865 23.3112 10.2454 23.9513 10.2338C24.0921 10.2316 24.4055 10.2664 24.6101 10.4317C24.7801 10.5712 24.8279 10.7598 24.8518 10.8922C24.873 11.0245 24.9023 11.326 24.8784 11.5613C24.6234 14.2494 23.5157 20.7726 22.9526 23.7835C22.7162 25.0574 22.246 25.4846 21.7918 25.5263C20.8037 25.6171 20.0546 24.8739 19.0984 24.2473C17.6029 23.2663 16.7582 22.6559 15.3052 21.6989C13.6265 20.5928 14.7155 19.9848 15.6718 18.9914C15.9215 18.7313 20.2724 14.7748 20.3548 14.416C20.3654 14.3711 20.376 14.2037 20.2751 14.1155C20.1768 14.0271 20.0307 14.0574 19.9244 14.0813C19.773 14.1153 17.3851 15.6952 12.7526 18.8208C12.0752 19.2867 11.4616 19.5138 10.9091 19.5019C10.3035 19.4889 9.13476 19.1587 8.26617 18.8766C7.20367 18.5305 6.35632 18.3475 6.4307 17.7597C6.46788 17.4537 6.89023 17.1405 7.69507 16.8204Z" fill="#A67DFE"/>
<defs>
<linearGradient id="paint0_linear_0_9" x1="1700" y1="0" x2="1700" y2="3400" gradientUnits="userSpaceOnUse">
<stop stop-color="white"/>
<stop offset="1" stop-color="#229ED9"/>
</linearGradient>
</defs>
</svg>
