<svg width="233" height="50" viewBox="0 0 233 50" fill="none" xmlns="http://www.w3.org/2000/svg">
<mask id="mask0_49_145" style="mask-type:alpha" maskUnits="userSpaceOnUse" x="0" y="0" width="342" height="50">
<g clip-path="url(#clip0_49_145)">
<path d="M0 4H5.92695V0H336.073V4H342V46H336.073V50H5.92695V46H0V4Z" fill="black"/>
</g>
</mask>
<g mask="url(#mask0_49_145)">
<g filter="url(#filter0_ii_49_145)">
<rect width="245" height="50" fill="#FFE84E"/>
<rect x="4" y="4" width="4" height="4" fill="white" fill-opacity="0.2"/>
<path d="M29.4385 24.7266L29.4561 30H24.1562V17.6953H34.7031V19.4531H36.4609V22.9688H34.7031V24.7266H29.4385ZM29.4297 19.4531V22.9688H32.9453V19.4531H29.4297ZM43.4922 17.6953V28.2422H47.0078V17.6953H50.5234V28.2422H48.7656V30H39.9766V28.2422H38.2188V17.6953H43.4922ZM52.2812 30V17.6953H62.8281V19.4531H64.5859V22.9688H62.8281V24.7266H64.5859V28.2422H62.8281V30H52.2812ZM57.5635 24.7266V28.2422H61.0703V24.7266H57.5635ZM57.5547 19.4531V22.9688H61.0703V19.4531H57.5547ZM78.6484 30H66.3438V17.6953H71.6172V28.2422H78.6484V30ZM90.9531 17.6953V19.4531H89.1953V28.2422H90.9531V30H82.1641V28.2422H83.9219V19.4531H82.1641V17.6953H90.9531ZM99.7422 19.4531V28.2422H106.773V30H96.2266V28.2422H94.4688V19.4531H96.2266V17.6953H106.773V19.4531H99.7422ZM131.383 19.4531V30H127.867V19.4531H126.109V30H122.594V17.6953H133.149V19.4531H134.898V30H133.141V19.4531H131.383ZM147.203 17.6953V19.4531H145.445V28.2422H147.203V30H138.414V28.2422H140.172V19.4531H138.414V17.6953H147.203ZM150.719 30V17.6953H161.266V19.4531H163.023V30H159.508V19.4531H155.992L156.001 30H150.719ZM177.086 17.6953V19.4531H173.57V30H168.297V19.4531H164.781V17.6953H177.086Z" fill="#28248C"/>
</g>
<path d="M211.446 11.5862C211.739 11.2109 212.135 11 212.549 11C212.963 11 213.36 11.2109 213.652 11.5862L220.674 20.5965C220.966 20.972 221.13 21.4812 221.13 22.0121C221.13 22.543 220.966 23.0522 220.674 23.4277L213.652 32.4379C213.358 32.8027 212.964 33.0045 212.555 32.9999C212.146 32.9954 211.754 32.7848 211.465 32.4135C211.176 32.0423 211.012 31.5401 211.008 31.0151C211.004 30.4901 211.162 29.9844 211.446 29.6067L215.67 24.0144H200.847C200.433 24.0144 200.036 23.8034 199.744 23.4279C199.451 23.0524 199.287 22.5431 199.287 22.0121C199.287 21.4811 199.451 20.9718 199.744 20.5963C200.036 20.2208 200.433 20.0098 200.847 20.0098H215.67L211.446 14.4175C211.153 14.042 210.989 13.5328 210.989 13.0018C210.989 12.4709 211.153 11.9617 211.446 11.5862Z" fill="#28248C"/>
</g>
<defs>
<filter id="filter0_ii_49_145" x="0" y="0" width="245" height="50" filterUnits="userSpaceOnUse" color-interpolation-filters="sRGB">
<feFlood flood-opacity="0" result="BackgroundImageFix"/>
<feBlend mode="normal" in="SourceGraphic" in2="BackgroundImageFix" result="shape"/>
<feColorMatrix in="SourceAlpha" type="matrix" values="0 0 0 0 0 0 0 0 0 0 0 0 0 0 0 0 0 0 127 0" result="hardAlpha"/>
<feOffset dx="4" dy="4"/>
<feComposite in2="hardAlpha" operator="arithmetic" k2="-1" k3="1"/>
<feColorMatrix type="matrix" values="0 0 0 0 1 0 0 0 0 1 0 0 0 0 1 0 0 0 0.2 0"/>
<feBlend mode="normal" in2="shape" result="effect1_innerShadow_49_145"/>
<feColorMatrix in="SourceAlpha" type="matrix" values="0 0 0 0 0 0 0 0 0 0 0 0 0 0 0 0 0 0 127 0" result="hardAlpha"/>
<feOffset dx="-4" dy="-4"/>
<feComposite in2="hardAlpha" operator="arithmetic" k2="-1" k3="1"/>
<feColorMatrix type="matrix" values="0 0 0 0 0 0 0 0 0 0 0 0 0 0 0 0 0 0 0.2 0"/>
<feBlend mode="normal" in2="effect1_innerShadow_49_145" result="effect2_innerShadow_49_145"/>
</filter>
<clipPath id="clip0_49_145">
<rect width="342" height="50" fill="white"/>
</clipPath>
</defs>
</svg>
