<svg width="22" height="22" viewBox="0 0 22 22" fill="none" xmlns="http://www.w3.org/2000/svg">
<path d="M12.1594 0.586239C12.452 0.21087 12.8487 0 13.2625 0C13.6762 0 14.073 0.21087 14.3656 0.586239L21.3869 9.59648C21.6794 9.97196 21.8438 10.4812 21.8438 11.0121C21.8438 11.543 21.6794 12.0522 21.3869 12.4277L14.3656 21.4379C14.0713 21.8027 13.6772 22.0045 13.2681 21.9999C12.859 21.9954 12.4677 21.7848 12.1784 21.4135C11.8891 21.0423 11.725 20.5401 11.7214 20.0151C11.7179 19.4901 11.8751 18.9844 12.1594 18.6067L16.3831 13.0144H1.56029C1.14648 13.0144 0.74961 12.8034 0.456999 12.4279C0.164387 12.0524 0 11.5431 0 11.0121C0 10.4811 0.164387 9.97177 0.456999 9.59627C0.74961 9.22077 1.14648 9.00981 1.56029 9.00981H16.3831L12.1594 3.41746C11.8668 3.04197 11.7025 2.53278 11.7025 2.00185C11.7025 1.47092 11.8668 0.961721 12.1594 0.586239Z" fill="#28248C"/>
</svg>
