<svg width="34" height="33" viewBox="0 0 34 33" fill="none" xmlns="http://www.w3.org/2000/svg">
<path d="M11.3722 25.8586C11.3722 25.9914 11.2145 26.0977 11.0157 26.0977C10.7895 26.1176 10.6319 26.0113 10.6319 25.8586C10.6319 25.7258 10.7895 25.6195 10.9883 25.6195C11.194 25.5996 11.3722 25.7059 11.3722 25.8586ZM9.24032 25.5598C9.19234 25.6926 9.32944 25.8453 9.53508 25.8852C9.71331 25.9516 9.91895 25.8852 9.96008 25.7523C10.0012 25.6195 9.87097 25.4668 9.66532 25.407C9.4871 25.3605 9.28831 25.427 9.24032 25.5598ZM12.2702 25.4469C12.0714 25.4934 11.9343 25.6195 11.9548 25.7723C11.9754 25.9051 12.1536 25.9914 12.3593 25.9449C12.5581 25.8984 12.6952 25.7723 12.6746 25.6395C12.654 25.5133 12.469 25.427 12.2702 25.4469ZM16.7806 0C7.27298 0 0 6.99258 0 16.2031C0 23.5676 4.78468 29.8695 11.619 32.0875C12.4964 32.2402 12.8048 31.7156 12.8048 31.284C12.8048 30.8723 12.7843 28.6012 12.7843 27.2066C12.7843 27.2066 7.98589 28.2027 6.97823 25.2277C6.97823 25.2277 6.19677 23.2953 5.07258 22.7973C5.07258 22.7973 3.50282 21.7547 5.18226 21.7746C5.18226 21.7746 6.88911 21.9074 7.82823 23.4879C9.32944 26.0512 11.8452 25.3141 12.8254 24.8758C12.9831 23.8133 13.4286 23.0762 13.9222 22.6379C10.0903 22.2262 6.22419 21.6883 6.22419 15.3C6.22419 13.4738 6.74516 12.5574 7.84194 11.3887C7.66371 10.957 7.08105 9.17734 8.02016 6.87969C9.45282 6.44805 12.75 8.67266 12.75 8.67266C14.121 8.30078 15.5948 8.1082 17.0548 8.1082C18.5149 8.1082 19.9887 8.30078 21.3597 8.67266C21.3597 8.67266 24.6569 6.44141 26.0895 6.87969C27.0286 9.18398 26.446 10.957 26.2677 11.3887C27.3645 12.5641 28.0363 13.4805 28.0363 15.3C28.0363 21.7082 23.9988 22.2195 20.1669 22.6379C20.7976 23.1625 21.3323 24.1586 21.3323 25.7191C21.3323 27.957 21.3117 30.7262 21.3117 31.2707C21.3117 31.7023 21.627 32.227 22.4976 32.0742C29.3524 29.8695 34 23.5676 34 16.2031C34 6.99258 26.2883 0 16.7806 0ZM6.6629 22.9035C6.57379 22.9699 6.59436 23.1227 6.71089 23.2488C6.82056 23.3551 6.97823 23.4016 7.06734 23.3152C7.15645 23.2488 7.13589 23.0961 7.01936 22.9699C6.90968 22.8637 6.75202 22.8172 6.6629 22.9035ZM5.92258 22.3656C5.8746 22.452 5.94314 22.5582 6.08024 22.6246C6.18992 22.691 6.32702 22.6711 6.375 22.5781C6.42298 22.4918 6.35444 22.3855 6.21734 22.3191C6.08024 22.2793 5.97056 22.2992 5.92258 22.3656ZM8.14355 24.7297C8.03387 24.816 8.075 25.0152 8.23266 25.1414C8.39032 25.2941 8.58911 25.3141 8.67823 25.2078C8.76734 25.1215 8.72621 24.9223 8.58911 24.7961C8.43831 24.6434 8.23266 24.6234 8.14355 24.7297ZM7.3621 23.7535C7.25242 23.8199 7.25242 23.9926 7.3621 24.1453C7.47177 24.298 7.65686 24.3645 7.74597 24.298C7.85565 24.2117 7.85565 24.0391 7.74597 23.8863C7.65 23.7336 7.47177 23.6672 7.3621 23.7535Z" fill="white"/>
</svg>
