<svg width="18" height="16" viewBox="0 0 18 16" fill="none" xmlns="http://www.w3.org/2000/svg">
<path d="M15.2612 1.35131C15.2562 1.34 15.2479 1.33114 15.2378 1.32631C14.0708 0.701617 12.8392 0.256162 11.5739 0.00109263C11.5624 -0.00140062 11.5506 0.000398044 11.54 0.00623282C11.5294 0.0120676 11.5207 0.0216414 11.5151 0.0335927C11.3474 0.388697 11.1951 0.753448 11.059 1.12645C9.69507 0.88491 8.30774 0.88491 6.94386 1.12645C6.80677 0.7525 6.65209 0.387659 6.48054 0.0335927C6.47466 0.0219011 6.46589 0.0125478 6.45538 0.00675094C6.44488 0.000954065 6.43312 -0.00101767 6.42164 0.00109263C5.15624 0.255627 3.9246 0.701115 2.75771 1.32635C2.74772 1.33129 2.73929 1.33972 2.73359 1.35049C0.400038 5.41614 -0.239209 9.38183 0.0743838 13.2984C0.075266 13.308 0.0777938 13.3173 0.0818169 13.3257C0.08584 13.3342 0.0912762 13.3416 0.0978022 13.3475C1.45661 14.5213 2.97645 15.4172 4.59246 15.9971C4.60384 16.0011 4.61599 16.0009 4.62728 15.9966C4.63858 15.9923 4.64846 15.9841 4.65561 15.973C5.0027 15.422 5.31024 14.8386 5.57512 14.2286C5.57876 14.2203 5.58084 14.2111 5.58121 14.2017C5.58159 14.1923 5.58027 14.183 5.57732 14.1742C5.57437 14.1655 5.56987 14.1576 5.56412 14.151C5.55836 14.1445 5.55148 14.1394 5.54392 14.1362C5.05895 13.9197 4.58944 13.6587 4.1398 13.3557C4.13163 13.3501 4.12477 13.3423 4.11982 13.3328C4.11488 13.3234 4.112 13.3127 4.11144 13.3017C4.11088 13.2906 4.11265 13.2796 4.11661 13.2696C4.12057 13.2595 4.12659 13.2508 4.13413 13.2441C4.22848 13.1616 4.32289 13.0758 4.41298 12.9892C4.42098 12.9815 4.43067 12.9766 4.44095 12.975C4.45122 12.9733 4.46168 12.9751 4.47114 12.9801C7.41694 14.5485 10.6062 14.5485 13.5171 12.9801C13.5266 12.9748 13.5372 12.9728 13.5476 12.9743C13.558 12.9757 13.5679 12.9806 13.576 12.9884C13.6661 13.075 13.7605 13.1616 13.8555 13.2441C13.8631 13.2507 13.8692 13.2594 13.8732 13.2694C13.8772 13.2794 13.8791 13.2904 13.8786 13.3015C13.8781 13.3125 13.8753 13.3232 13.8704 13.3327C13.8655 13.3422 13.8587 13.3501 13.8506 13.3557C13.402 13.6613 12.932 13.9221 12.4458 14.1354C12.4382 14.1387 12.4314 14.1439 12.4257 14.1506C12.4199 14.1572 12.4155 14.1652 12.4126 14.174C12.4097 14.1828 12.4084 14.1922 12.4089 14.2016C12.4093 14.2111 12.4115 14.2203 12.4152 14.2286C12.6845 14.8352 12.9916 15.4179 13.334 15.972C13.3409 15.9834 13.3508 15.9919 13.3621 15.9964C13.3734 16.0009 13.3857 16.0011 13.3971 15.997C15.016 15.4191 16.5385 14.5231 17.899 13.3475C17.9057 13.3419 17.9112 13.3347 17.9152 13.3263C17.9193 13.318 17.9217 13.3088 17.9225 13.2992C18.2979 8.77126 17.2939 4.83807 15.2612 1.35131ZM6.01505 10.9136C5.12815 10.9136 4.39737 9.96409 4.39737 8.79794C4.39737 7.63179 5.11397 6.68218 6.01505 6.68218C6.92316 6.68218 7.64687 7.64004 7.6327 8.79787C7.6327 9.96408 6.91606 10.9136 6.01505 10.9136ZM11.9961 10.9136C11.1092 10.9136 10.3784 9.96409 10.3784 8.79794C10.3784 7.63179 11.095 6.68218 11.9961 6.68218C12.9043 6.68218 13.6279 7.64004 13.6138 8.79787C13.6138 9.96408 12.9043 10.9136 11.9961 10.9136Z" fill="#A67DFE"/>
</svg>
