<svg width="34" height="34" viewBox="0 0 34 34" fill="none" xmlns="http://www.w3.org/2000/svg">
<path d="M34 17.1039C34 7.65773 26.3888 0 17 0C7.61122 0 0 7.65773 0 17.1039C0 25.6409 6.21669 32.7169 14.3438 34L14.3438 22.048L10.0273 22.048V17.1039L14.3438 17.1039L14.3438 13.3357C14.3438 9.04903 16.8818 6.68121 20.765 6.68121C22.6249 6.68121 24.5703 7.01527 24.5703 7.01527L24.5703 11.2244H22.4267C20.3149 11.2244 19.6563 12.5429 19.6563 13.8956V17.1039H24.3711L23.6174 22.048H19.6563L19.6563 34C27.7833 32.7169 34 25.641 34 17.1039Z" fill="#FEFEFE"/>
</svg>
