<svg width="231" height="50" viewBox="0 0 231 50" fill="none" xmlns="http://www.w3.org/2000/svg">
<mask id="mask0_0_23" style="mask-type:alpha" maskUnits="userSpaceOnUse" x="0" y="0" width="231" height="50">
<g clip-path="url(#clip0_0_23)">
<path d="M0 4H4V0H226.81V4H230.81V46H226.81V50H4V46H0V4Z" fill="black"/>
</g>
</mask>
<g mask="url(#mask0_0_23)">
<g filter="url(#filter0_ii_0_23)">
<rect width="230.81" height="50" fill="#37DBFF"/>
<path d="M4 4H8V8H4V4Z" fill="white" fill-opacity="0.2"/>
<path d="M222.81 42H226.81V46H222.81V42Z" fill="black" fill-opacity="0.2"/>
</g>
<g filter="url(#filter1_d_0_23)">
<path d="M22.3359 19.4531V28.2422H29.3672V30H18.8203V28.2422H17.0625V19.4531H18.8203V17.6953H29.3672V19.4531H22.3359ZM41.6719 30H32.8828V28.2422H31.125V19.4531H32.8828V17.6953H41.6719V19.4531H43.4297V28.2422H41.6719V30ZM39.9141 28.2422V19.4531H36.3984V28.2422H39.9141ZM45.1875 30V17.6953H55.7344V19.4531H57.4922V30H53.9766V19.4531H50.4609L50.4697 30H45.1875ZM59.25 30V17.6953H69.7969V19.4531H71.5547V30H68.0391V19.4531H64.5234L64.5322 30H59.25ZM85.6172 30H73.3125V17.6953H85.6172V19.4531H78.5859V22.9688H83.8594V24.7266H78.5859V28.2422H85.6172V30ZM92.6484 19.4531V28.2422H99.6797V30H89.1328V28.2422H87.375V19.4531H89.1328V17.6953H99.6797V19.4531H92.6484ZM113.742 17.6953V19.4531H110.227V30H104.953V19.4531H101.438V17.6953H113.742ZM140.109 28.2422V17.6953H141.867V28.2422H140.118V30H131.32V28.2422H129.562V17.6953H133.078V28.2422H134.836V17.6953H138.352V28.2422H140.109ZM143.625 30V19.4531H145.383V17.6953H154.172V19.4531H155.93V30H152.414V24.7266H148.898V30H143.625ZM148.898 19.7256V22.9688H152.414V19.7256H148.898ZM169.992 30H157.688V17.6953H162.961V28.2422H169.992V30ZM184.055 30H171.75V17.6953H177.023V28.2422H184.055V30ZM198.117 30H185.812V17.6953H198.117V19.4531H191.086V22.9688H196.359V24.7266H191.086V28.2422H198.117V30ZM212.18 17.6953V19.4531H208.664V30H203.391V19.4531H199.875V17.6953H212.18Z" fill="white"/>
</g>
</g>
<defs>
<filter id="filter0_ii_0_23" x="0" y="0" width="230.81" height="50" filterUnits="userSpaceOnUse" color-interpolation-filters="sRGB">
<feFlood flood-opacity="0" result="BackgroundImageFix"/>
<feBlend mode="normal" in="SourceGraphic" in2="BackgroundImageFix" result="shape"/>
<feColorMatrix in="SourceAlpha" type="matrix" values="0 0 0 0 0 0 0 0 0 0 0 0 0 0 0 0 0 0 127 0" result="hardAlpha"/>
<feOffset dx="4" dy="4"/>
<feComposite in2="hardAlpha" operator="arithmetic" k2="-1" k3="1"/>
<feColorMatrix type="matrix" values="0 0 0 0 1 0 0 0 0 1 0 0 0 0 1 0 0 0 0.2 0"/>
<feBlend mode="normal" in2="shape" result="effect1_innerShadow_0_23"/>
<feColorMatrix in="SourceAlpha" type="matrix" values="0 0 0 0 0 0 0 0 0 0 0 0 0 0 0 0 0 0 127 0" result="hardAlpha"/>
<feOffset dx="-4" dy="-4"/>
<feComposite in2="hardAlpha" operator="arithmetic" k2="-1" k3="1"/>
<feColorMatrix type="matrix" values="0 0 0 0 0 0 0 0 0 0 0 0 0 0 0 0 0 0 0.2 0"/>
<feBlend mode="normal" in2="effect1_innerShadow_0_23" result="effect2_innerShadow_0_23"/>
</filter>
<filter id="filter1_d_0_23" x="17.0625" y="17.6953" width="195.117" height="14.3047" filterUnits="userSpaceOnUse" color-interpolation-filters="sRGB">
<feFlood flood-opacity="0" result="BackgroundImageFix"/>
<feColorMatrix in="SourceAlpha" type="matrix" values="0 0 0 0 0 0 0 0 0 0 0 0 0 0 0 0 0 0 127 0" result="hardAlpha"/>
<feOffset dy="2"/>
<feComposite in2="hardAlpha" operator="out"/>
<feColorMatrix type="matrix" values="0 0 0 0 0 0 0 0 0 0 0 0 0 0 0 0 0 0 0.25 0"/>
<feBlend mode="normal" in2="BackgroundImageFix" result="effect1_dropShadow_0_23"/>
<feBlend mode="normal" in="SourceGraphic" in2="effect1_dropShadow_0_23" result="shape"/>
</filter>
<clipPath id="clip0_0_23">
<rect width="230.81" height="50" fill="white"/>
</clipPath>
</defs>
</svg>
